<svg width="294" height="24" viewBox="0 0 294 24" fill="none" xmlns="http://www.w3.org/2000/svg">
<path d="M0.275234 23.676V0.887999H17.1952V5.568H6.03523V9.888H15.7192V14.568H6.03523V18.996H17.1952V23.676H0.275234ZM34.7562 12.048L41.4162 23.676H34.2162L30.0762 15.612H29.9682L25.8282 23.676H18.6282L25.2882 12.048V11.868L19.0602 0.887999H26.1522L29.9682 8.808H30.0762L33.8922 0.887999H40.9842L34.7562 11.868V12.048ZM50.0157 23.676H44.2557V0.887999H54.4077C56.6877 0.887999 58.5117 1.164 59.8797 1.716C61.2477 2.268 62.2317 3.168 62.8317 4.416C63.4317 5.664 63.7317 7.356 63.7317 9.492C63.7317 11.508 63.4317 13.152 62.8317 14.424C62.2317 15.672 61.2477 16.596 59.8797 17.196C58.5117 17.796 56.6877 18.096 54.4077 18.096H50.0157V23.676ZM53.4717 5.604H50.0157V13.38H53.4717C55.1757 13.38 56.3157 13.092 56.8917 12.516C57.4677 11.94 57.7557 10.932 57.7557 9.492C57.7557 8.124 57.4677 7.14 56.8917 6.54C56.3157 5.916 55.1757 5.604 53.4717 5.604ZM83.3509 18.78V23.676H66.7909V0.887999H72.5509V18.78H83.3509ZM85.1607 12.264C85.1607 9.36 85.4847 7.056 86.1327 5.352C86.8047 3.648 87.9447 2.424 89.5527 1.68C91.1847 0.935999 93.4527 0.563999 96.3567 0.563999C98.5407 0.563999 100.353 0.767999 101.793 1.176C103.233 1.584 104.373 2.244 105.213 3.156C106.053 4.068 106.641 5.28 106.977 6.792C107.337 8.28 107.517 10.104 107.517 12.264C107.517 14.448 107.337 16.296 106.977 17.808C106.641 19.296 106.053 20.496 105.213 21.408C104.373 22.32 103.233 22.98 101.793 23.388C100.353 23.796 98.5407 24 96.3567 24C94.1727 24 92.3607 23.796 90.9207 23.388C89.4807 22.98 88.3407 22.32 87.5007 21.408C86.6607 20.496 86.0607 19.296 85.7007 17.808C85.3407 16.296 85.1607 14.448 85.1607 12.264ZM96.3567 18.96C97.8927 18.96 99.0447 18.768 99.8127 18.384C100.581 18 101.097 17.328 101.361 16.368C101.625 15.384 101.757 14.016 101.757 12.264C101.757 10.536 101.625 9.192 101.361 8.232C101.097 7.272 100.581 6.6 99.8127 6.216C99.0447 5.808 97.8927 5.604 96.3567 5.604C94.8447 5.604 93.6927 5.808 92.9007 6.216C92.1327 6.6 91.6047 7.272 91.3167 8.232C91.0527 9.192 90.9207 10.536 90.9207 12.264C90.9207 14.016 91.0527 15.384 91.3167 16.368C91.6047 17.328 92.1327 18 92.9007 18.384C93.6927 18.768 94.8447 18.96 96.3567 18.96ZM116.883 23.676H111.123V0.887999H121.995C124.851 0.887999 126.927 1.536 128.223 2.832C129.543 4.104 130.203 5.988 130.203 8.484C130.203 10.356 129.735 11.964 128.799 13.308C127.863 14.628 126.627 15.456 125.091 15.792L125.055 15.9C125.655 16.284 126.315 16.92 127.035 17.808C127.755 18.696 128.463 19.668 129.159 20.724C129.879 21.756 130.515 22.728 131.067 23.64V23.676H124.371L120.483 17.916C120.147 17.412 119.871 17.052 119.655 16.836C119.463 16.62 119.223 16.488 118.935 16.44C118.671 16.392 118.239 16.368 117.639 16.368H116.883V23.676ZM121.059 5.568H116.883V11.688H121.059C122.259 11.688 123.087 11.448 123.543 10.968C124.023 10.488 124.263 9.708 124.263 8.628C124.263 7.548 124.023 6.768 123.543 6.288C123.087 5.808 122.259 5.568 121.059 5.568ZM134.326 23.676V0.887999H151.246V5.568H140.086V9.888H149.77V14.568H140.086V18.996H151.246V23.676H134.326ZM169.592 23.676V5.748H163.112V0.887999H181.832V5.748H175.352V23.676H169.592ZM205.233 23.568V23.676H199.113C198.945 23.1 198.741 22.44 198.501 21.696C198.285 20.952 198.045 20.16 197.781 19.32H190.005C189.525 21 189.081 22.452 188.673 23.676H182.553V23.604L189.933 0.887999H197.853L205.233 23.568ZM193.821 4.992C193.581 6.216 193.233 7.704 192.777 9.456C192.321 11.208 191.841 12.996 191.337 14.82H196.485C195.957 12.996 195.465 11.208 195.009 9.456C194.553 7.704 194.205 6.216 193.965 4.992H193.821ZM213.527 23.676H207.767V0.887999H213.527V23.676ZM241.221 0.887999H247.089L242.265 23.676H235.245C234.501 21.108 233.853 18.6 233.301 16.152C232.773 13.704 232.269 11.088 231.789 8.304H231.717C231.165 11.088 230.613 13.704 230.061 16.152C229.533 18.6 228.933 21.108 228.261 23.676H221.241L216.417 0.887999H222.285C222.645 2.568 222.969 4.212 223.257 5.82C223.545 7.428 223.821 9.072 224.085 10.752C224.373 12.408 224.661 14.208 224.949 16.152H225.021C225.381 14.208 225.729 12.408 226.065 10.752C226.401 9.072 226.749 7.428 227.109 5.82C227.469 4.212 227.853 2.568 228.261 0.887999H235.245C235.797 3.432 236.337 5.976 236.865 8.52C237.417 11.064 237.957 13.608 238.485 16.152H238.557C239.013 13.608 239.457 11.064 239.889 8.52C240.321 5.976 240.765 3.432 241.221 0.887999ZM270.835 23.568V23.676H264.715C264.547 23.1 264.343 22.44 264.103 21.696C263.887 20.952 263.647 20.16 263.383 19.32H255.607C255.127 21 254.683 22.452 254.275 23.676H248.155V23.604L255.535 0.887999H263.455L270.835 23.568ZM259.423 4.992C259.183 6.216 258.835 7.704 258.379 9.456C257.923 11.208 257.443 12.996 256.939 14.82H262.087C261.559 12.996 261.067 11.208 260.611 9.456C260.155 7.704 259.807 6.216 259.567 4.992H259.423ZM288.129 0.887999H293.889V23.676H288.165L281.685 14.028C281.181 13.26 280.761 12.612 280.425 12.084C280.089 11.556 279.777 11.028 279.489 10.5C279.201 9.972 278.877 9.348 278.517 8.628L278.409 8.772C278.745 9.924 278.949 11.004 279.021 12.012C279.093 12.996 279.129 13.956 279.129 14.892V23.676H273.369V0.887999H279.093L285.573 10.536C286.077 11.28 286.497 11.928 286.833 12.48C287.169 13.008 287.481 13.536 287.769 14.064C288.057 14.592 288.381 15.216 288.741 15.936L288.849 15.792C288.609 14.784 288.429 13.812 288.309 12.876C288.189 11.916 288.129 10.968 288.129 10.032V0.887999Z" fill="white"/>
</svg>
